#define 86a4389c79504cb2887166853fb66b8fucDaHlEkX6sFpJIT_width 32
#define 86a4389c79504cb2887166853fb66b8fucDaHlEkX6sFpJIT_height 32
static char 86a4389c79504cb2887166853fb66b8fucDaHlEkX6sFpJIT_bits[] = {
  0x00, 0x00, 0x00, 0x60, 0x00, 0x00, 0x00, 0xF8, 0x00, 0x00, 0x00, 0x7C, 
  0x00, 0x00, 0x00, 0x7E, 0x00, 0x00, 0x00, 0x3F, 0x00, 0x00, 0x80, 0x3F, 
  0x00, 0x00, 0xC0, 0x1F, 0x00, 0x00, 0xA0, 0x0F, 0x00, 0x00, 0xF0, 0x0F, 
  0x00, 0x00, 0xE8, 0x07, 0x00, 0x00, 0xFC, 0x03, 0x00, 0x00, 0xFC, 0x01, 
  0x00, 0x00, 0xFE, 0x00, 0x00, 0x00, 0xFF, 0x00, 0x00, 0x80, 0x7F, 0x00, 
  0x00, 0x00, 0x3F, 0x00, 0x00, 0x00, 0x1C, 0x00, 0x00, 0x00, 0x0A, 0x00, 
  0x00, 0x00, 0x01, 0x00, 0x00, 0x80, 0x00, 0x00, 0x00, 0x40, 0x00, 0x00, 
  0x00, 0x20, 0x00, 0x00, 0x00, 0x10, 0x00, 0x00, 0xC0, 0x09, 0x00, 0x00, 
  0xF0, 0x07, 0x00, 0x00, 0xF8, 0x0F, 0x00, 0x00, 0xFC, 0x0F, 0x00, 0x00, 
  0xFC, 0x07, 0x00, 0x00, 0xFE, 0x03, 0x00, 0x00, 0xFE, 0x03, 0x00, 0x00, 
  0x00, 0x00, 0x00, 0x00, 0x00, 0x00, 0x00, 0x00, };
